<svg fill="#fff" height="20px" width="20px" version="1.1" id="Capa_1" xmlns="http://www.w3.org/2000/svg"
     viewBox="0 0 434.729 434.729" xml:space="preserve">
<path d="M426.357,85.709l-71.128-71.127c-11.145-11.145-29.278-11.145-40.425,0L68.777,260.61l11.051,11.051l-19.961,19.963
	l1.163,3.98c2.792,9.558,2.958,19.742,0.479,29.443c-2.483,9.672-7.532,18.521-14.6,25.589l-16.979,16.979l4.595,4.595L0,406.736
	l46.646,21.77l22.088-22.088l4.595,4.595l16.978-16.979c14.402-14.4,35.492-19.811,55.04-14.119l3.978,1.159l19.959-19.959
	l11.047,11.047l246.027-246.028c5.399-5.398,8.373-12.577,8.373-20.212S431.756,91.108,426.357,85.709z M43.681,411.672
	l-19.647-9.169l20.392-20.393l7.205,7.204l7.205,7.204L43.681,411.672z M145.181,365.418c-23.273-5.281-47.756,1.7-64.774,18.717
	l-7.078,7.079l-11.799-11.799l-11.799-11.799l7.08-7.079c8.84-8.84,15.154-19.908,18.263-32.016
	c2.75-10.767,2.896-22.007,0.455-32.759l14.201-14.201l69.655,69.655L145.181,365.418z M416.457,116.234L180.329,352.363
	L88.576,260.61L324.704,24.481c5.687-5.687,14.939-5.687,20.626,0l71.127,71.127c2.755,2.755,4.272,6.417,4.272,10.313
	C420.729,109.817,419.212,113.479,416.457,116.234z"/>
</svg>